<svg width="131" height="32" viewBox="0 0 131 32" fill="none" xmlns="http://www.w3.org/2000/svg">
<g clip-path="url(#clip0_2001_10172)">
<path d="M28.623 6.64184L15.4078 11.949C14.7788 12.2019 14.0762 12.2019 13.4472 11.949L0.23287 6.64184C0.121636 6.59703 0 6.67945 0 6.79949V17.974C0 18.1085 0.0816245 18.2293 0.206462 18.2789L5.90497 20.5676C6.40352 20.7677 6.72922 21.251 6.72922 21.788V31.2812C6.72922 31.4629 6.87646 31.6101 7.05812 31.6101H11.3202C11.5019 31.6101 11.6491 31.4629 11.6491 31.2812V18.7495C11.6491 17.2154 12.8927 15.971 14.4275 15.971C15.9624 15.971 17.206 17.2146 17.206 18.7495V31.2812C17.206 31.4629 17.3532 31.6101 17.5349 31.6101H21.7969C21.9786 31.6101 22.1258 31.4629 22.1258 31.2812V21.788C22.1258 21.251 22.4523 20.7677 22.9509 20.5676L28.6494 18.2789C28.7742 18.2285 28.8559 18.1085 28.8559 17.974V6.79949C28.8559 6.67945 28.7342 6.59703 28.623 6.64184ZM7.9944 2.92873L10.66 4.01785C10.8481 4.09468 10.9433 4.30194 10.8841 4.4964C10.752 4.93573 10.6992 5.40787 10.744 5.89922C10.9025 7.63094 12.5462 9.18821 14.2835 9.25463C16.3929 9.33465 18.1278 7.64854 18.1278 5.55752C18.1278 5.18701 18.0726 4.8301 17.971 4.4932C17.9126 4.29954 18.0086 4.09468 18.1959 4.01785L20.8623 2.92873C21.0159 2.86631 21.0159 2.64784 20.8623 2.58542L14.6316 0.0398611C14.5011 -0.013755 14.3555 -0.013755 14.2251 0.0398611L7.9944 2.58542C7.84075 2.64784 7.84075 2.86631 7.9944 2.92873Z" fill="#9264CA"/>
<path d="M97.7452 21.009C98.2781 18.3057 100.161 16.5986 102.967 16.5986C105.879 16.5986 107.798 18.4484 108.153 21.009H97.746H97.7452ZM102.967 13.4333C97.9587 13.4333 93.8378 17.2742 93.8378 22.7169C93.8378 28.1588 97.9579 31.9996 102.967 31.9996C107.194 31.9996 110.107 29.652 111.457 26.2738H107.656C106.697 27.945 105.205 28.8344 102.967 28.8344C100.054 28.8344 98.1005 26.9854 97.6743 24.0323H111.848C112.842 17.9499 108.331 13.4326 102.967 13.4326V13.4333ZM78.906 23.8903C78.906 26.6647 77.2012 28.5504 74.5724 28.5504C71.9443 28.5504 70.2746 26.6655 70.2746 23.8903V13.8242H66.5807V23.8903C66.5807 28.6565 69.6708 31.9996 74.5724 31.9996C79.5098 31.9996 82.5999 28.6565 82.5999 23.8903V13.8242H78.906V23.8903ZM122.404 22.4321L130.431 13.8242H125.992L118.852 21.6496V5.99965H115.158V31.6088H118.852V23.4994L126.347 31.6088H131L122.404 22.4321ZM86.8666 31.6088H90.5605V5.99965H86.8666V31.6088ZM43.5744 31.6088H47.2683V13.8242H43.5744V31.6088ZM49.8262 10.3391H56.1131V31.6088H60.0205V10.3391H66.3075V6.71119H49.8262V10.3391ZM45.3867 6.20864C44.0683 6.20864 43 7.27835 43 8.59773C43 9.91712 44.0683 10.9876 45.3867 10.9876C46.7043 10.9876 47.7725 9.91792 47.7725 8.59773C47.7725 7.27835 46.7043 6.20864 45.3867 6.20864Z" fill="#9264CA"/>
</g>
<defs>
<clipPath id="clip0_2001_10172">
<rect width="131" height="32" fill="white"/>
</clipPath>
</defs>
</svg>
