<svg width="73" height="45" viewBox="0 0 73 45" fill="none" xmlns="http://www.w3.org/2000/svg">
<g opacity="0.5">
<path d="M-2 8.44444V24.1111H19.8751C19.8701 27.5724 18.2223 30.8907 15.2931 33.3382C12.3639 35.7857 8.39253 37.1625 4.25003 37.1667V45C10.8782 44.9938 17.2327 42.791 21.9196 38.8749C26.6064 34.9588 29.2427 29.6493 29.2501 24.1111V-2H10.5001C7.18484 -2 4.0054 -0.899607 1.66118 1.05911C-0.683033 3.01782 -2 5.67441 -2 8.44444Z" fill="#4C2779"/>
<path d="M54.25 -2C50.9348 -2 47.7553 -0.899607 45.4111 1.05911C43.0669 3.01782 41.7499 5.67441 41.7499 8.44444V24.1111H63.625C63.62 27.5724 61.9722 30.8907 59.043 33.3382C56.1139 35.7857 52.1425 37.1625 48 37.1667V45C54.6281 44.9938 60.9826 42.791 65.6694 38.8749C70.3562 34.9588 72.9926 29.6493 73 24.1111V-2H54.25Z" fill="#4C2779"/>
</g>
</svg>
