<svg width="26" height="26" viewBox="0 0 26 26" fill="none" xmlns="http://www.w3.org/2000/svg">
<path d="M18.3333 25H22.8667C23.6134 25 23.9868 25 24.272 24.8547C24.5229 24.7268 24.7268 24.5229 24.8547 24.272C25 23.9868 25 23.6134 25 22.8667V3.13333C25 2.3866 25 2.01323 24.8547 1.72801C24.7268 1.47713 24.5229 1.27316 24.272 1.14532C23.9868 1 23.6134 1 22.8667 1H15.1333C14.3866 1 14.0132 1 13.728 1.14532C13.4771 1.27316 13.2732 1.47713 13.1453 1.72801C13 2.01323 13 2.3866 13 3.13333V5M10.3333 21V25M6.33333 25H14.3333M5.26667 21H15.4C16.8935 21 17.6402 21 18.2106 20.7094C18.7124 20.4537 19.1204 20.0457 19.376 19.544C19.6667 18.9735 19.6667 18.2268 19.6667 16.7333V9.26667C19.6667 7.77319 19.6667 7.02646 19.376 6.45603C19.1204 5.95426 18.7124 5.54631 18.2106 5.29065C17.6402 5 16.8935 5 15.4 5H5.26667C3.77319 5 3.02646 5 2.45603 5.29065C1.95426 5.54631 1.54631 5.95426 1.29065 6.45603C1 7.02646 1 7.77319 1 9.26667V16.7333C1 18.2268 1 18.9735 1.29065 19.544C1.54631 20.0457 1.95426 20.4537 2.45603 20.7094C3.02646 21 3.77319 21 5.26667 21Z" stroke="#773DBD" stroke-width="2" stroke-linecap="round"/>
</svg>
