<svg width="26" height="20" viewBox="0 0 26 20" fill="none" xmlns="http://www.w3.org/2000/svg">
<path d="M5.64128 8.71429H10.5471M8.09419 6.14286V11.2857M16.6794 10H16.6916M20.3587 7.42857H20.371M11.0977 1H14.9023C18.1216 1 19.7312 1 20.9947 1.63955C22.1071 2.20265 23.0313 3.10483 23.6464 4.22791C24.3449 5.50347 24.4596 7.18661 24.689 10.5529L24.9907 14.9815C25.1387 17.153 23.4981 19 21.4215 19C20.3595 19 19.3524 18.5055 18.6725 17.6502L18.2124 17.0714C17.7916 16.542 17.5811 16.2773 17.3415 16.0634C16.8392 15.6149 16.2311 15.3164 15.5809 15.1989C15.2708 15.1429 14.942 15.1429 14.2846 15.1429H11.7154C11.058 15.1429 10.7292 15.1429 10.4191 15.1989C9.76891 15.3164 9.16081 15.6149 8.65849 16.0634C8.41888 16.2773 8.20844 16.542 7.78758 17.0714L7.32746 17.6502C6.6476 18.5055 5.64049 19 4.57851 19C2.50186 19 0.861322 17.153 1.00928 14.9815L1.31103 10.5529C1.54039 7.18661 1.65508 5.50347 2.35362 4.22791C2.96865 3.10483 3.89291 2.20265 5.00532 1.63955C6.26876 1 7.87841 1 11.0977 1Z" stroke="#773DBD" stroke-width="2" stroke-linecap="round" stroke-linejoin="round"/>
</svg>
