<svg width="26" height="22" viewBox="0 0 26 22" fill="none" xmlns="http://www.w3.org/2000/svg">
<path d="M19 21H25V18.5C24.9999 17.7207 24.7668 16.9607 24.333 16.3258C23.8991 15.6909 23.2862 15.2125 22.5793 14.9572C21.8724 14.7019 21.1067 14.6823 20.3887 14.9013C19.6707 15.1202 19.036 15.5667 18.5728 16.1787M19 21H7M19 21V18.5C19 17.68 18.8488 16.8962 18.5728 16.1787M18.5728 16.1787C18.1272 15.0187 17.3581 14.0243 16.3648 13.3239C15.3715 12.6235 14.1995 12.2491 13 12.2491C11.8005 12.2491 10.6285 12.6235 9.6352 13.3239C8.64189 14.0243 7.87283 15.0187 7.4272 16.1787M7 21H1V18.5C1.00005 17.7207 1.2332 16.9607 1.66703 16.3258C2.10086 15.6909 2.71382 15.2125 3.4207 14.9572C4.12758 14.7019 4.89325 14.6823 5.61129 14.9013C6.32932 15.1202 6.96403 15.5667 7.4272 16.1787M7 21V18.5C7 17.68 7.1512 16.8962 7.4272 16.1787M16.6 4.75C16.6 5.74456 16.2207 6.69839 15.5456 7.40165C14.8705 8.10491 13.9548 8.5 13 8.5C12.0452 8.5 11.1295 8.10491 10.4544 7.40165C9.77928 6.69839 9.4 5.74456 9.4 4.75C9.4 3.75544 9.77928 2.80161 10.4544 2.09835C11.1295 1.39509 12.0452 1 13 1C13.9548 1 14.8705 1.39509 15.5456 2.09835C16.2207 2.80161 16.6 3.75544 16.6 4.75ZM23.8 8.5C23.8 9.16304 23.5471 9.79893 23.0971 10.2678C22.647 10.7366 22.0365 11 21.4 11C20.7635 11 20.153 10.7366 19.7029 10.2678C19.2529 9.79893 19 9.16304 19 8.5C19 7.83696 19.2529 7.20107 19.7029 6.73223C20.153 6.26339 20.7635 6 21.4 6C22.0365 6 22.647 6.26339 23.0971 6.73223C23.5471 7.20107 23.8 7.83696 23.8 8.5ZM7 8.5C7 9.16304 6.74714 9.79893 6.29706 10.2678C5.84697 10.7366 5.23652 11 4.6 11C3.96348 11 3.35303 10.7366 2.90294 10.2678C2.45286 9.79893 2.2 9.16304 2.2 8.5C2.2 7.83696 2.45286 7.20107 2.90294 6.73223C3.35303 6.26339 3.96348 6 4.6 6C5.23652 6 5.84697 6.26339 6.29706 6.73223C6.74714 7.20107 7 7.83696 7 8.5Z" stroke="#773DBD" stroke-width="2" stroke-linecap="round" stroke-linejoin="round"/>
</svg>
