<svg width="26" height="24" viewBox="0 0 26 24" fill="none" xmlns="http://www.w3.org/2000/svg">
<path d="M22.3333 23H3.66667C2.95942 23 2.28115 22.7103 1.78105 22.1945C1.28095 21.6788 1 20.9793 1 20.25V3.75C1 3.02065 1.28095 2.32118 1.78105 1.80546C2.28115 1.28973 2.95942 1 3.66667 1H17C17.7072 1 18.3855 1.28973 18.8856 1.80546C19.3857 2.32118 19.6667 3.02065 19.6667 3.75V5.125M22.3333 23C21.6261 23 20.9478 22.7103 20.4477 22.1945C19.9476 21.6788 19.6667 20.9793 19.6667 20.25V5.125M22.3333 23C23.0406 23 23.7189 22.7103 24.219 22.1945C24.719 21.6788 25 20.9793 25 20.25V7.875C25 7.14565 24.719 6.44618 24.219 5.93046C23.7189 5.41473 23.0406 5.125 22.3333 5.125H19.6667M14.3333 1H9M7 15H14M14 9H7" stroke="#773DBD" stroke-width="2" stroke-linecap="round" stroke-linejoin="round"/>
</svg>
