<svg width="26" height="26" viewBox="0 0 26 26" fill="none" xmlns="http://www.w3.org/2000/svg">
<path d="M12.9993 18.5342V15.6133M18.4752 5.46576V3.54438C18.4752 2.13979 17.3508 1 15.9652 1H10.0349C8.64931 1 7.52492 2.13979 7.52492 3.54438V5.46576M1.0281 17.1598L1.24275 21.5484C1.38813 23.4952 2.9884 25 4.91349 25H21.0871C23.0121 25 24.6124 23.4952 24.7578 21.5484L24.9724 17.1598M21.536 5.47085C23.4554 5.47085 25 7.04813 25 8.99384V12.9543C22.2061 14.6122 17.0149 15.6138 12.9943 15.6138C7.47377 15.6138 3.79394 14.6122 1 12.9543V8.98232C1 7.03662 2.55598 5.47085 4.47539 5.47085H21.536Z" stroke="#773DBD" stroke-width="2" stroke-linecap="round" stroke-linejoin="round"/>
</svg>
