<svg width="24" height="28" viewBox="0 0 24 28" fill="none" xmlns="http://www.w3.org/2000/svg">
<path d="M6.28571 3.88896C4.87379 3.89007 3.13369 3.90821 2.56003 4.20376C2.02242 4.48073 1.58533 4.92267 1.31141 5.46625C1 6.08422 1 6.89318 1 8.51111V22.3778C1 23.9957 1 24.8047 1.31141 25.4226C1.58533 25.9662 2.02242 26.4082 2.56003 26.6851C3.1712 27 3.97128 27 5.57143 27H18.4286C20.0287 27 20.8288 27 21.44 26.6851C21.9776 26.4082 22.4147 25.9662 22.6886 25.4226C23 24.8047 23 23.9957 23 22.3778V8.51111C23 6.8932 23 6.08421 22.6886 5.46625C22.4147 4.92267 21.9776 4.48073 21.44 4.20376C20.8663 3.90821 19.1262 3.89007 17.7143 3.88896M6.28571 3.88896V6.77778H17.7143V3.88896M6.28571 3.88896V3.46582C6.28571 2.81184 6.54265 2.18465 7 1.72222C7.45735 1.25979 8.07765 1 8.72444 1H15.2756C15.9224 1 16.5427 1.25979 17 1.72222C17.4573 2.18465 17.7143 2.81184 17.7143 3.46582V3.88896M17.7143 12.5556H14.8571M17.7143 19.7778H14.8571M6.28571 12.5556L7.71429 14L10.5714 11.1111M6.5 21.5L9.35714 18.6111M9.35721 21.5L6.50007 18.6111" stroke="#773DBD" stroke-width="2" stroke-linecap="round" stroke-linejoin="round"/>
</svg>
