<svg width="30" height="24" viewBox="0 0 30 24" fill="none" xmlns="http://www.w3.org/2000/svg">
<path d="M1 8.17037L15 1L29 8.17037L23.324 11.0774M1 8.17037L6.67598 11.0774M1 8.17037V15.9926M6.6 20.3926V11.4296C6.6 11.3102 6.62587 11.1926 6.67598 11.0774M6.6 20.3926C6.6 21.8326 10.3608 23 15 23C19.6392 23 23.4 21.8326 23.4 20.3926M6.6 20.3926C6.6 18.9526 10.3608 17.7852 15 17.7852C19.6392 17.7852 23.4 18.9526 23.4 20.3926M23.4 20.3926V11.4296C23.4 11.3102 23.3741 11.1926 23.324 11.0774M23.324 11.0774C23.3067 11.0377 23.2865 10.9982 23.2635 10.959C22.5497 9.7436 19.1215 8.82222 15 8.82222C10.8785 8.82222 7.45026 9.7436 6.73648 10.959C6.71347 10.9982 6.69328 11.0377 6.67598 11.0774" stroke="#773DBD" stroke-width="2" stroke-linecap="round" stroke-linejoin="round"/>
</svg>
