<svg width="26" height="26" viewBox="0 0 26 26" fill="none" xmlns="http://www.w3.org/2000/svg">
<path d="M10.8342 21H15.1658M7.10202 1H18.898C20.391 1 21.1375 1 21.7077 1.29065C22.2093 1.54631 22.6172 1.95426 22.8727 2.45603C23.1633 3.02646 23.1633 3.77319 23.1633 5.26667V12.7333C23.1633 14.2268 23.1633 14.9735 22.8727 15.544C22.6172 16.0457 22.2093 16.4537 21.7077 16.7094C21.1375 17 20.391 17 18.898 17H7.10202C5.60902 17 4.86251 17 4.29226 16.7094C3.79066 16.4537 3.38284 16.0457 3.12725 15.544C2.8367 14.9735 2.8367 14.2268 2.8367 12.7333V5.26667C2.8367 3.77319 2.8367 3.02646 3.12725 2.45603C3.38284 1.95426 3.79066 1.54631 4.29226 1.29065C4.86251 1 5.60902 1 7.10202 1ZM3.62159 25H22.3784C23.521 25 24.0923 25 24.4364 24.7593C24.7368 24.5491 24.9374 24.2244 24.991 23.8615C25.0524 23.446 24.7969 22.9349 24.2859 21.9126L23.5988 20.5378C22.9568 19.2536 22.6359 18.6115 22.157 18.1423C21.7336 17.7275 21.2232 17.4119 20.6629 17.2186C20.0293 17 19.3116 17 17.8762 17H8.12378C6.6884 17 5.97071 17 5.33709 17.2186C4.77677 17.4119 4.26642 17.7275 3.84297 18.1423C3.36413 18.6115 3.04317 19.2536 2.40125 20.5378L1.71408 21.9126C1.20309 22.9349 0.947602 23.446 1.00897 23.8615C1.06256 24.2244 1.26318 24.5491 1.56362 24.7593C1.90769 25 2.47899 25 3.62159 25Z" stroke="#773DBD" stroke-width="2" stroke-linecap="round" stroke-linejoin="round"/>
</svg>
