<svg width="26" height="24" viewBox="0 0 26 24" fill="none" xmlns="http://www.w3.org/2000/svg">
<path d="M13 9.4V23M13 9.4C13 6.45972 13 4.98959 12.4187 3.86655C11.9074 2.8787 11.0915 2.07555 10.0879 1.57222C8.94709 1 7.45361 1 4.46667 1H3.13333C2.3866 1 2.01323 1 1.72801 1.14305C1.47713 1.26889 1.27316 1.46967 1.14532 1.71664C1 1.9974 1 2.36493 1 3.1V18.275C1 19.0101 1 19.3776 1.14532 19.6584C1.27316 19.9053 1.47713 20.1061 1.72801 20.2319C2.01323 20.375 2.3866 20.375 3.13333 20.375H7.06224C7.78249 20.375 8.14262 20.375 8.49085 20.4361C8.79994 20.4903 9.10147 20.5802 9.38921 20.7039C9.71339 20.8432 10.013 21.0398 10.6123 21.4331L13 23M13 9.4C13 6.45972 13 4.98959 13.5813 3.86655C14.0926 2.8787 14.9085 2.07555 15.9121 1.57222C17.0529 1 18.5464 1 21.5333 1H22.8667C23.6134 1 23.9868 1 24.272 1.14305C24.5229 1.26889 24.7268 1.46967 24.8547 1.71664C25 1.9974 25 2.36493 25 3.1V18.275C25 19.0101 25 19.3776 24.8547 19.6584C24.7268 19.9053 24.5229 20.1061 24.272 20.2319C23.9868 20.375 23.6134 20.375 22.8667 20.375H18.9378C18.2175 20.375 17.8574 20.375 17.5092 20.4361C17.2001 20.4903 16.8985 20.5802 16.6108 20.7039C16.2866 20.8432 15.987 21.0398 15.3877 21.4331L13 23M17.5 7H20.5M17.5 13H20.5M5.49997 7H8.49997M5.49995 13H8.49997" stroke="#773DBD" stroke-width="2" stroke-linecap="round" stroke-linejoin="round"/>
</svg>
