<svg width="24" height="26" viewBox="0 0 24 26" fill="none" xmlns="http://www.w3.org/2000/svg">
<path d="M1 22.3333V5.26667C1 3.77319 1 3.02646 1.29973 2.45603C1.56338 1.95426 1.98408 1.54631 2.50153 1.29065C3.08978 1 3.85986 1 5.4 1H18.6C20.1401 1 20.9102 1 21.4985 1.29065C22.0159 1.54631 22.4366 1.95426 22.7003 2.45603C23 3.02646 23 3.77319 23 5.26667V19.6667H3.75C2.23122 19.6667 1 20.8606 1 22.3333ZM1 22.3333C1 23.8061 2.23122 25 3.75 25H23M7.875 6.33333H16.125M7.875 11.6667H16.125M21.625 19.6667V25" stroke="#773DBD" stroke-width="2" stroke-linecap="round" stroke-linejoin="round"/>
</svg>
