<svg width="26" height="26" viewBox="0 0 26 26" fill="none" xmlns="http://www.w3.org/2000/svg">
<path d="M24.3094 9.4375V5.5C24.3094 3.92485 24.3094 3.13728 24.0355 2.53565C23.7946 2.00645 23.4101 1.57619 22.9373 1.30654C22.3997 1 21.696 1 20.2886 1H5.71338C4.30598 1 3.60228 1 3.06472 1.30654C2.59188 1.57619 2.20744 2.00645 1.96651 2.53565C1.69262 3.13728 1.69262 3.92485 1.69262 5.5V9.4375M4.99908 16.5625H5.01321M1 25C1.58215 23.3614 3.15294 22.1875 4.99935 22.1875C6.84575 22.1875 8.41654 23.3614 8.99869 25M12.9998 16.5625H13.014M9.00074 25C9.58289 23.3614 11.1537 22.1875 13.0001 22.1875C14.8465 22.1875 16.4173 23.3614 16.9994 25M21.0004 16.5625H21.0145M17.0013 25C17.5835 23.3614 19.1542 22.1875 21.0007 22.1875C22.8471 22.1875 24.4178 23.3614 25 25M6.41262 16.5625C6.41262 17.3392 5.77976 17.9688 4.99908 17.9688C4.21839 17.9688 3.58553 17.3392 3.58553 16.5625C3.58553 15.7858 4.21839 15.1562 4.99908 15.1562C5.77976 15.1562 6.41262 15.7858 6.41262 16.5625ZM14.4134 16.5625C14.4134 17.3392 13.7805 17.9688 12.9998 17.9688C12.2191 17.9688 11.5863 17.3392 11.5863 16.5625C11.5863 15.7858 12.2191 15.1562 12.9998 15.1562C13.7805 15.1562 14.4134 15.7858 14.4134 16.5625ZM22.4139 16.5625C22.4139 17.3392 21.7811 17.9688 21.0004 17.9688C20.2197 17.9688 19.5868 17.3392 19.5868 16.5625C19.5868 15.7858 20.2197 15.1562 21.0004 15.1562C21.7811 15.1562 22.4139 15.7858 22.4139 16.5625Z" stroke="#773DBD" stroke-width="2" stroke-linecap="round" stroke-linejoin="round"/>
</svg>
